<svg width="36" height="25" viewBox="0 0 36 25" fill="none" xmlns="http://www.w3.org/2000/svg">
<mask id="mask0_373_19936" style="mask-type:luminance" maskUnits="userSpaceOnUse" x="0" y="0" width="24" height="25">
<path d="M23.3516 0.787109H0.000990441V24.2138H23.3516V0.787109Z" fill="white"/>
</mask>
<g mask="url(#mask0_373_19936)">
<path d="M0.080535 11.1329L0.0842051 11.0806C0.787934 5.29025 5.71679 0.787126 11.6705 0.787126C13.2991 0.784373 14.9102 1.12752 16.3975 1.79363C14.7763 2.87904 13.4229 4.32137 12.4403 6.0105C12.1843 5.97838 11.9274 5.96187 11.6705 5.96187C8.07386 5.96095 5.15802 8.88597 5.15619 12.4954C5.15619 13.7368 5.50759 14.9525 6.17003 16.0003C6.17646 16.0077 6.1838 16.0178 6.19114 16.0251C7.38481 17.9023 9.45104 19.0391 11.6705 19.0391C12.3394 19.0345 13.0036 18.9308 13.6413 18.7308C15.3956 18.1693 16.8324 16.8885 17.5958 15.2067C17.9481 14.4433 18.1463 13.6176 18.1775 12.7771V12.7487C18.1848 12.6643 18.1848 12.5844 18.1848 12.5C18.1848 12.4165 18.1848 12.3358 18.1775 12.2523V12.2239C18.2995 9.90165 19.895 7.92167 22.131 7.31519C23.5385 10.1705 23.7256 13.479 22.6466 16.4756C22.498 16.8885 22.3273 17.2922 22.1347 17.6858C21.1245 19.7254 19.5482 21.4283 17.5958 22.588C17.2095 22.8183 16.8085 23.0248 16.3975 23.2073C16.2507 23.2734 16.1011 23.3367 15.9516 23.3954H15.9479C15.9452 23.3982 15.9415 23.4 15.9378 23.3991V23.4028C15.9314 23.4046 15.9259 23.4055 15.9204 23.4064C15.9112 23.4074 15.903 23.4092 15.8956 23.4138C14.5496 23.945 13.1165 24.2166 11.6705 24.2138C6.27922 24.2083 1.59167 20.5016 0.324592 15.2415C0.32184 15.2342 0.320922 15.2259 0.320922 15.2168C0.319087 15.2149 0.31817 15.2131 0.31817 15.2103C0.106225 14.3222 -0.00112327 13.4129 0.000711865 12.5C0.000711865 12.0431 0.0273195 11.5871 0.080535 11.1329Z" fill="#065EFB"/>
</g>
<mask id="mask1_373_19936" style="mask-type:luminance" maskUnits="userSpaceOnUse" x="11" y="0" width="25" height="25">
<path d="M35.1914 0.787109H11.8418V24.2138H35.1914V0.787109Z" fill="white"/>
</mask>
<g mask="url(#mask1_373_19936)">
<path d="M22.7518 18.9905C23.0069 19.0226 23.2638 19.0382 23.5216 19.0391C27.1192 19.0437 30.0387 16.1196 30.0433 12.5083C30.0478 8.89699 27.1338 5.96555 23.5363 5.96188C23.5317 5.96188 23.5262 5.96188 23.5216 5.96188C22.8518 5.96555 22.1857 6.07015 21.5462 6.26925C19.7938 6.83351 18.3588 8.11252 17.5964 9.79431C17.2468 10.5586 17.0495 11.3834 17.0147 12.2239C17.0128 12.233 17.0128 12.2431 17.0147 12.2523C17.0073 12.3358 17.0073 12.4165 17.0073 12.5C17.0073 12.5845 17.0073 12.6643 17.0147 12.7487C17.0128 12.7579 17.0128 12.767 17.0147 12.7771C16.8917 15.1003 15.2952 17.0802 13.0574 17.6858C11.449 14.4186 11.45 10.5852 13.0602 7.31796C13.1474 7.13996 13.2419 6.96197 13.3391 6.78672L13.4685 6.56285C13.5245 6.46468 13.5868 6.36742 13.6456 6.26925C14.6392 4.68746 15.9935 3.36534 17.5964 2.41296C17.7633 2.31479 17.9303 2.22029 18.101 2.12945C18.1037 2.12945 18.1065 2.12762 18.1083 2.12578C18.112 2.12578 18.1147 2.12211 18.1221 2.11936C18.1303 2.11569 18.1368 2.1111 18.1432 2.10468C18.3588 1.99641 18.5744 1.89182 18.7946 1.79364C20.281 1.12662 21.8921 0.783468 23.5216 0.787139C29.9552 0.787139 35.1914 6.04262 35.1914 12.5C35.1932 13.9231 34.9345 15.3333 34.428 16.6609C34.4244 16.6683 34.4225 16.6747 34.4216 16.682V16.6857C34.4179 16.6931 34.4179 16.6995 34.4143 16.7031C33.5867 18.8464 32.1517 20.6989 30.2864 22.032C30.3011 22.0256 30.3148 22.0173 30.3277 22.0073C30.2341 22.0779 30.1396 22.1476 30.0423 22.2137C26.7136 24.4671 22.4637 24.8424 18.7946 23.2074C20.4149 22.1201 21.7683 20.6787 22.7518 18.9905Z" fill="#023796"/>
</g>
</svg>
