<svg width="79" height="79" viewBox="0 0 79 79" fill="none" xmlns="http://www.w3.org/2000/svg">
<rect x="0.5" y="0.5" width="78" height="78" rx="39" fill="#0447BF" fill-opacity="0.15"/>
<path d="M34.625 29.75C33.7299 29.75 32.8714 30.1056 32.2385 30.7385C31.6056 31.3715 31.25 32.2299 31.25 33.125C31.25 34.0201 31.6056 34.8786 32.2385 35.5115C32.8714 36.1444 33.7299 36.5 34.625 36.5C35.5201 36.5 36.3785 36.1444 37.0115 35.5115C37.6444 34.8786 38 34.0201 38 33.125C38 32.2299 37.6444 31.3715 37.0115 30.7385C36.3785 30.1056 35.5201 29.75 34.625 29.75ZM29.75 33.125C29.75 31.8321 30.2636 30.5921 31.1779 29.6779C32.0921 28.7636 33.3321 28.25 34.625 28.25C35.9179 28.25 37.1579 28.7636 38.0721 29.6779C38.9864 30.5921 39.5 31.8321 39.5 33.125C39.5 34.4179 38.9864 35.6579 38.0721 36.5721C37.1579 37.4864 35.9179 38 34.625 38C33.3321 38 32.0921 37.4864 31.1779 36.5721C30.2636 35.6579 29.75 34.4179 29.75 33.125ZM29.75 39.5C28.9544 39.5 28.1913 39.8161 27.6287 40.3787C27.0661 40.9413 26.75 41.7044 26.75 42.5V42.626C26.7522 42.7137 26.7582 42.8013 26.768 42.8885C26.8743 43.8606 27.2196 44.7913 27.773 45.5975C28.8245 47.12 30.8555 48.5 34.625 48.5C36.044 48.5 37.2155 48.305 38.1815 47.9795C38.0755 47.4845 38.0155 46.9745 38.0015 46.4495C37.1555 46.7825 36.056 47 34.625 47C31.2695 47 29.738 45.8015 29.0075 44.7455C28.5984 44.1486 28.3419 43.4605 28.2605 42.7415L28.2515 42.617L28.25 42.5915V42.5C28.25 42.1022 28.408 41.7206 28.6893 41.4393C28.9706 41.158 29.3522 41 29.75 41H39.5C39.621 41 39.7385 41.014 39.8525 41.042C40.1925 40.622 40.5715 40.2395 40.9895 39.8945C40.5358 39.6356 40.0224 39.4996 39.5 39.5H29.75ZM46.25 32C45.6533 32 45.081 32.2371 44.659 32.659C44.2371 33.081 44 33.6533 44 34.25C44 34.8467 44.2371 35.419 44.659 35.841C45.081 36.2629 45.6533 36.5 46.25 36.5C46.8467 36.5 47.419 36.2629 47.841 35.841C48.2629 35.419 48.5 34.8467 48.5 34.25C48.5 33.6533 48.2629 33.081 47.841 32.659C47.419 32.2371 46.8467 32 46.25 32ZM42.5 34.25C42.5 33.2554 42.8951 32.3016 43.5984 31.5983C44.3016 30.8951 45.2554 30.5 46.25 30.5C47.2446 30.5 48.1984 30.8951 48.9016 31.5983C49.6049 32.3016 50 33.2554 50 34.25C50 35.2446 49.6049 36.1984 48.9016 36.9017C48.1984 37.6049 47.2446 38 46.25 38C45.2554 38 44.3016 37.6049 43.5984 36.9017C42.8951 36.1984 42.5 35.2446 42.5 34.25ZM46.25 53C47.7308 52.9995 49.1704 52.5121 50.3469 51.6129C51.5234 50.7137 52.3715 49.4525 52.7607 48.0238C53.1498 46.595 53.0583 45.078 52.5003 43.7063C51.9422 42.3347 50.9486 41.1846 49.6726 40.4333C48.3965 39.682 46.9088 39.3712 45.4387 39.5487C43.9686 39.7262 42.5976 40.3822 41.5371 41.4157C40.4765 42.4491 39.7853 43.8026 39.5698 45.2676C39.3542 46.7327 39.6265 48.2279 40.3445 49.523L39.5285 52.2065C39.4968 52.3127 39.4945 52.4256 39.5217 52.533C39.5489 52.6405 39.6046 52.7386 39.683 52.817C39.7614 52.8954 39.8595 52.9511 39.967 52.9783C40.0744 53.0055 40.1873 53.0032 40.2935 52.9715L42.9785 52.1555C43.9798 52.7098 45.1055 53.0004 46.25 53ZM42.5 44.75C42.5 44.5511 42.579 44.3603 42.7197 44.2197C42.8603 44.079 43.0511 44 43.25 44H49.25C49.4489 44 49.6397 44.079 49.7803 44.2197C49.921 44.3603 50 44.5511 50 44.75C50 44.9489 49.921 45.1397 49.7803 45.2803C49.6397 45.421 49.4489 45.5 49.25 45.5H43.25C43.0511 45.5 42.8603 45.421 42.7197 45.2803C42.579 45.1397 42.5 44.9489 42.5 44.75ZM43.25 48.5C43.0511 48.5 42.8603 48.421 42.7197 48.2803C42.579 48.1397 42.5 47.9489 42.5 47.75C42.5 47.5511 42.579 47.3603 42.7197 47.2197C42.8603 47.079 43.0511 47 43.25 47H46.25C46.4489 47 46.6397 47.079 46.7803 47.2197C46.921 47.3603 47 47.5511 47 47.75C47 47.9489 46.921 48.1397 46.7803 48.2803C46.6397 48.421 46.4489 48.5 46.25 48.5H43.25Z" fill="#0447BF"/>
</svg>
