<svg width="87" height="87" viewBox="0 0 87 87" fill="none" xmlns="http://www.w3.org/2000/svg">
<rect width="86.7946" height="86.7946" rx="19.2877" fill="#ECEBFF"/>
<path d="M43.3963 20.4941C37.3218 20.4941 31.496 22.9072 27.2006 27.2026C22.9053 31.498 20.4922 37.3237 20.4922 43.3983C20.4922 49.4728 22.9053 55.2986 27.2006 59.5939C31.496 63.8893 37.3218 66.3024 43.3963 66.3024L43.3963 43.3983L43.3963 20.4941Z" fill="#023796"/>
<path d="M43.3986 66.3008C49.4732 66.3008 55.2989 63.8877 59.5943 59.5923C63.8896 55.297 66.3027 49.4712 66.3027 43.3967C66.3027 37.3221 63.8896 31.4964 59.5943 27.201C55.2989 22.9057 49.4732 20.4925 43.3986 20.4925L43.3986 43.3967L43.3986 66.3008Z" fill="#C2D8FF"/>
</svg>
