<svg width="133" height="41" viewBox="0 0 133 41" fill="none" xmlns="http://www.w3.org/2000/svg">
<mask id="mask0_373_19935" style="mask-type:luminance" maskUnits="userSpaceOnUse" x="0" y="8" width="24" height="25">
<path d="M23.3516 8.78711H0.000989914V32.2138H23.3516V8.78711Z" fill="white"/>
</mask>
<g mask="url(#mask0_373_19935)">
<path d="M0.0805359 19.1329L0.0842056 19.0806C0.787933 13.2903 5.71679 8.78713 11.6705 8.78713C13.2991 8.78437 14.9102 9.12752 16.3975 9.79363C14.7763 10.879 13.4229 12.3214 12.4403 14.0105C12.1843 13.9784 11.9274 13.9619 11.6705 13.9619C8.07386 13.961 5.15802 16.886 5.15619 20.4954C5.15619 21.7368 5.50759 22.9525 6.17003 24.0003C6.17646 24.0077 6.1838 24.0178 6.19114 24.0251C7.38481 25.9023 9.45104 27.0391 11.6705 27.0391C12.3394 27.0345 13.0036 26.9308 13.6413 26.7308C15.3956 26.1693 16.8324 24.8885 17.5958 23.2067C17.9481 22.4433 18.1463 21.6176 18.1775 20.7771V20.7487C18.1848 20.6643 18.1848 20.5844 18.1848 20.5C18.1848 20.4165 18.1848 20.3358 18.1775 20.2523V20.2239C18.2995 17.9016 19.895 15.9217 22.131 15.3152C23.5385 18.1705 23.7256 21.479 22.6466 24.4756C22.498 24.8885 22.3273 25.2922 22.1347 25.6858C21.1245 27.7254 19.5482 29.4283 17.5958 30.588C17.2095 30.8183 16.8085 31.0248 16.3975 31.2073C16.2507 31.2734 16.1011 31.3367 15.9516 31.3954H15.9479C15.9452 31.3982 15.9415 31.4 15.9378 31.3991V31.4028C15.9314 31.4046 15.9259 31.4055 15.9204 31.4064C15.9112 31.4074 15.903 31.4092 15.8956 31.4138C14.5496 31.945 13.1165 32.2166 11.6705 32.2139C6.27922 32.2083 1.59167 28.5016 0.324593 23.2415C0.32184 23.2342 0.320923 23.2259 0.320923 23.2168C0.319086 23.2149 0.318169 23.2131 0.318169 23.2103C0.106226 22.3222 -0.00112343 21.4129 0.000711441 20.5C0.000711441 20.0431 0.027319 19.5871 0.0805359 19.1329Z" fill="#065EFB"/>
</g>
<mask id="mask1_373_19935" style="mask-type:luminance" maskUnits="userSpaceOnUse" x="11" y="8" width="25" height="25">
<path d="M35.1914 8.78711H11.8418V32.2138H35.1914V8.78711Z" fill="white"/>
</mask>
<g mask="url(#mask1_373_19935)">
<path d="M22.7518 26.9905C23.0069 27.0226 23.2638 27.0382 23.5216 27.0391C27.1192 27.0437 30.0387 24.1196 30.0433 20.5083C30.0478 16.897 27.1338 13.9656 23.5363 13.9619C23.5317 13.9619 23.5262 13.9619 23.5216 13.9619C22.8518 13.9656 22.1857 14.0701 21.5462 14.2692C19.7938 14.8335 18.3588 16.1125 17.5964 17.7943C17.2468 18.5586 17.0495 19.3834 17.0147 20.2239C17.0128 20.233 17.0128 20.2431 17.0147 20.2523C17.0073 20.3358 17.0073 20.4165 17.0073 20.5C17.0073 20.5845 17.0073 20.6643 17.0147 20.7487C17.0128 20.7579 17.0128 20.767 17.0147 20.7771C16.8917 23.1003 15.2952 25.0802 13.0574 25.6858C11.449 22.4186 11.45 18.5852 13.0602 15.318C13.1474 15.14 13.2419 14.962 13.3391 14.7867L13.4685 14.5628C13.5245 14.4647 13.5868 14.3674 13.6456 14.2692C14.6392 12.6875 15.9935 11.3653 17.5964 10.413C17.7633 10.3148 17.9303 10.2203 18.101 10.1295C18.1037 10.1295 18.1065 10.1276 18.1083 10.1258C18.112 10.1258 18.1147 10.1221 18.1221 10.1194C18.1303 10.1157 18.1368 10.1111 18.1432 10.1047C18.3588 9.99641 18.5744 9.89182 18.7946 9.79364C20.281 9.12662 21.8921 8.78347 23.5216 8.78714C29.9552 8.78714 35.1914 14.0426 35.1914 20.5C35.1932 21.9231 34.9345 23.3333 34.428 24.6609C34.4244 24.6683 34.4225 24.6747 34.4216 24.682V24.6857C34.4179 24.6931 34.4179 24.6995 34.4143 24.7031C33.5867 26.8464 32.1517 28.6989 30.2864 30.032C30.3011 30.0256 30.3148 30.0173 30.3277 30.0073C30.2341 30.0779 30.1396 30.1476 30.0423 30.2137C26.7136 32.4671 22.4637 32.8424 18.7946 31.2074C20.4149 30.1201 21.7683 28.6787 22.7518 26.9905Z" fill="#023796"/>
</g>
<path d="M39.2734 32.5V8.16897H43.8085L45.7616 20.7814L45.9271 22.0724H45.9934L46.1589 20.7814L48.112 8.16897H52.6472V32.5H49.3368V16.18H49.1382L49.0058 17.2062L46.8871 32.5H45.0334L42.9147 17.2062L42.7823 16.18H42.5837V32.5H39.2734ZM58.9492 32.7648C57.614 32.7648 56.5603 32.3069 55.7878 31.391C55.0265 30.4641 54.6458 29.3331 54.6458 27.9979V18.8945C54.6458 17.4821 55.0265 16.3345 55.7878 15.4517C56.5492 14.569 57.614 14.1276 58.9823 14.1276C59.8761 14.1276 60.643 14.3317 61.283 14.74C61.934 15.1483 62.4306 15.7055 62.7727 16.4117C63.1147 17.1069 63.2858 17.9014 63.2858 18.7952V24.0586H57.7575V27.9979C57.7575 28.4503 57.8568 28.8697 58.0554 29.2559C58.2651 29.631 58.574 29.8186 58.9823 29.8186C59.4127 29.8186 59.7161 29.6421 59.8927 29.289C60.0803 28.9359 60.174 28.5055 60.174 27.9979V26.0117H63.2858V28.0972C63.2858 29.4986 62.9051 30.6297 62.1437 31.4903C61.3934 32.34 60.3285 32.7648 58.9492 32.7648ZM57.7575 21.4434H60.174V18.8945C60.174 18.3979 60.0858 17.9676 59.9092 17.6034C59.7437 17.2283 59.4347 17.0407 58.9823 17.0407C58.563 17.0407 58.254 17.2338 58.0554 17.62C57.8568 17.9952 57.7575 18.42 57.7575 18.8945V21.4434ZM64.7035 32.5V14.3924H68.047V15.9152C68.4442 15.529 68.8911 15.1372 69.3877 14.74C69.8842 14.3317 70.3421 14.1276 70.7615 14.1276C71.3132 14.1276 71.7766 14.3041 72.1518 14.6572C72.527 15.0103 72.8084 15.4572 72.9959 15.9979C73.1835 16.5386 73.2773 17.0959 73.2773 17.6697V32.5H69.9339V18.3317C69.9339 17.9786 69.8732 17.7303 69.7518 17.5869C69.6304 17.4434 69.4263 17.3717 69.1394 17.3717C68.8966 17.3717 68.687 17.46 68.5104 17.6366C68.3449 17.8021 68.1904 18.0007 68.047 18.2324V32.5H64.7035ZM79.5913 32.7648C78.543 32.7648 77.743 32.5331 77.1913 32.0697C76.6396 31.6062 76.2589 30.9441 76.0492 30.0834C75.8506 29.2228 75.7513 28.1966 75.7513 27.0048V17.4048H74.063V14.3924H75.7513V9.92345H79.0947V14.3924H81.3954V17.4048H79.0947V27.4848C79.0947 28.191 79.1996 28.7152 79.4092 29.0572C79.6189 29.3883 79.9609 29.5538 80.4354 29.5538C80.6451 29.5538 80.8271 29.5372 80.9816 29.5041C81.1471 29.471 81.2796 29.4324 81.3789 29.3883V32.4503C81.1582 32.5386 80.9154 32.6103 80.6506 32.6655C80.3968 32.7317 80.0437 32.7648 79.5913 32.7648ZM86.5081 32.7317C85.1729 32.7317 84.1246 32.2848 83.3633 31.391C82.6019 30.4862 82.2212 29.3441 82.2212 27.9648V18.8945C82.2212 17.5152 82.6019 16.3786 83.3633 15.4848C84.1246 14.58 85.1729 14.1276 86.5081 14.1276C87.8322 14.1276 88.875 14.58 89.6364 15.4848C90.4088 16.3786 90.795 17.5152 90.795 18.8945V27.9648C90.795 29.3441 90.4088 30.4862 89.6364 31.391C88.875 32.2848 87.8322 32.7317 86.5081 32.7317ZM86.5081 29.8186C86.9384 29.8186 87.2364 29.6476 87.4019 29.3055C87.5674 28.9524 87.6502 28.5055 87.6502 27.9648V18.8945C87.6502 18.3428 87.5674 17.8959 87.4019 17.5538C87.2364 17.2117 86.9384 17.0407 86.5081 17.0407C86.0778 17.0407 85.7798 17.2117 85.6143 17.5538C85.4488 17.8959 85.366 18.3428 85.366 18.8945V27.9648C85.366 28.5166 85.4488 28.9634 85.6143 29.3055C85.7798 29.6476 86.0778 29.8186 86.5081 29.8186ZM92.279 32.5V14.3924H95.6224V16.4117C95.6886 15.9703 95.8927 15.5786 96.2348 15.2366C96.5769 14.8945 96.9907 14.6241 97.4762 14.4255C97.9727 14.2269 98.4693 14.1276 98.9659 14.1276V17.8352C98.8224 17.78 98.6679 17.7469 98.5024 17.7359C98.3479 17.7138 98.1934 17.7028 98.039 17.7028C97.3107 17.7028 96.7259 17.9014 96.2845 18.2986C95.8431 18.6959 95.6224 19.2366 95.6224 19.9207V32.5H92.279ZM100.631 32.5V8.16897H104.206V18.2324H106.987V8.16897H110.562V32.5H106.987V21.9069H104.206V32.5H100.631ZM115.226 32.7648C114.674 32.7648 114.211 32.5883 113.836 32.2352C113.46 31.8821 113.179 31.4352 112.991 30.8945C112.804 30.3428 112.71 29.7855 112.71 29.2228V14.3924H116.053V28.5607C116.053 28.9028 116.114 29.151 116.236 29.3055C116.368 29.449 116.572 29.5207 116.848 29.5207C117.091 29.5207 117.295 29.4379 117.46 29.2724C117.637 29.0959 117.797 28.8917 117.94 28.66V14.3924H121.284V32.5H117.94V30.9772C117.543 31.3524 117.096 31.7441 116.6 32.1524C116.103 32.5607 115.645 32.7648 115.226 32.7648ZM128.917 32.7648C128.454 32.7648 128.007 32.6214 127.577 32.3345C127.146 32.0366 126.71 31.6945 126.269 31.3083V32.5H122.926V8.16897H126.269V15.5841C126.688 15.1869 127.13 14.8448 127.593 14.5579C128.057 14.271 128.498 14.1276 128.917 14.1276C129.491 14.1276 129.966 14.3041 130.341 14.6572C130.727 14.9993 131.014 15.4407 131.201 15.9814C131.4 16.5221 131.499 17.0848 131.499 17.6697V29.2228C131.499 29.8076 131.4 30.3759 131.201 30.9276C131.003 31.4683 130.71 31.9097 130.324 32.2517C129.938 32.5938 129.469 32.7648 128.917 32.7648ZM127.328 29.62C127.582 29.62 127.781 29.5152 127.924 29.3055C128.079 29.0959 128.156 28.8366 128.156 28.5276V18.3648C128.156 18.0448 128.079 17.7855 127.924 17.5869C127.781 17.3772 127.582 17.2724 127.328 17.2724C127.086 17.2724 126.848 17.3883 126.617 17.62C126.385 17.8517 126.269 18.1 126.269 18.3648V28.5276C126.269 28.8366 126.385 29.0959 126.617 29.3055C126.848 29.5152 127.086 29.62 127.328 29.62Z" fill="#141F33"/>
</svg>
