<svg width="79" height="78" viewBox="0 0 79 78" fill="none" xmlns="http://www.w3.org/2000/svg">
<rect x="0.5" width="78" height="78" rx="39" fill="#C61BE2" fill-opacity="0.15"/>
<path d="M39.4893 42.312C38.8329 42.3126 38.1912 42.1182 37.6456 41.7535C37.0999 41.3888 36.6749 40.8702 36.4245 40.2635C36.174 39.6568 36.1094 38.9894 36.2389 38.346C36.3684 37.7026 36.6861 37.1121 37.1518 36.6495C37.2396 36.5625 37.3437 36.4937 37.4581 36.4469C37.5726 36.4002 37.6951 36.3764 37.8187 36.377C37.9423 36.3775 38.0646 36.4025 38.1786 36.4503C38.2926 36.4982 38.396 36.568 38.483 36.6558C38.57 36.7436 38.6389 36.8477 38.6856 36.9621C38.7324 37.0766 38.7562 37.1991 38.7556 37.3227C38.755 37.4463 38.7301 37.5686 38.6823 37.6826C38.6344 37.7966 38.5646 37.9 38.4768 37.987C38.3419 38.1189 38.2348 38.2764 38.1619 38.4503C38.0889 38.6242 38.0514 38.811 38.0518 38.9996C38.0352 39.2964 38.1118 39.5911 38.271 39.8422C38.4302 40.0933 38.664 40.2884 38.9396 40.4C39.2152 40.5116 39.5188 40.5342 39.8079 40.4647C40.097 40.3951 40.3571 40.2368 40.5518 40.0121C40.7297 39.8357 40.97 39.7368 41.2205 39.7368C41.471 39.7368 41.7114 39.8357 41.8893 40.0121C42.0626 40.1915 42.1595 40.4313 42.1595 40.6808C42.1595 40.9303 42.0626 41.1701 41.8893 41.3496C41.5734 41.6616 41.1984 41.9074 40.7863 42.0727C40.3742 42.2379 39.9332 42.3193 39.4893 42.312Z" fill="#C61BE2"/>
<path d="M52.3027 39C52.3027 42.3981 50.9529 45.657 48.55 48.0598C46.1472 50.4626 42.8883 51.8125 39.4902 51.8125C36.0921 51.8125 32.8332 50.4626 30.4304 48.0598C28.0276 45.657 26.6777 42.3981 26.6777 39C26.6777 35.6019 28.0276 32.343 30.4304 29.9402C32.8332 27.5374 36.0921 26.1875 39.4902 26.1875C39.7389 26.1875 39.9773 26.2863 40.1531 26.4621C40.329 26.6379 40.4277 26.8764 40.4277 27.125V31.875C40.4245 32.1226 40.3247 32.3592 40.1496 32.5343C39.9744 32.7095 39.7379 32.8093 39.4902 32.8125C38.266 32.8041 37.0679 33.1657 36.0527 33.85C35.0319 34.5266 34.2358 35.4919 33.766 36.623C33.2963 37.754 33.1741 38.9993 33.4152 40.2C33.8073 41.6245 34.6914 42.864 35.9106 43.6986C37.1297 44.5332 38.6051 44.9089 40.0749 44.7591C41.5448 44.6092 42.914 43.9436 43.9397 42.8801C44.9653 41.8167 45.5811 40.4243 45.6777 38.95C45.6761 38.8264 45.6992 38.7038 45.7457 38.5893C45.7922 38.4748 45.8612 38.3707 45.9486 38.2833C46.036 38.1959 46.14 38.127 46.2545 38.0804C46.369 38.0339 46.4917 38.0108 46.6152 38.0125H51.3652C51.4927 38.0123 51.6188 38.0381 51.7359 38.0883C51.8531 38.1385 51.9587 38.2121 52.0465 38.3045C52.1342 38.3969 52.2022 38.5063 52.2463 38.6259C52.2903 38.7454 52.3095 38.8727 52.3027 39Z" fill="#C61BE2"/>
<path d="M51.8533 31.6616C51.8207 31.9048 51.7211 32.1342 51.5658 32.3241L48.8533 35.0366C48.4675 35.4239 47.9903 35.7077 47.4658 35.8616C47.1581 35.9561 46.8376 36.0025 46.5158 35.9991C46.2954 36.0187 46.0737 36.0187 45.8533 35.9991L44.1908 35.6741L41.3408 38.5366C41.1616 38.7071 40.9255 38.805 40.6783 38.8116C40.4297 38.8114 40.1914 38.7125 40.0158 38.5366C39.9273 38.4504 39.857 38.3474 39.8091 38.2336C39.7611 38.1199 39.7363 37.9976 39.7363 37.8741C39.7363 37.7506 39.7611 37.6284 39.8091 37.5146C39.857 37.4008 39.9273 37.2978 40.0158 37.2116L42.8783 34.3366L42.5408 32.6866C42.4399 32.1548 42.4656 31.6067 42.6158 31.0866C42.7697 30.5621 43.0535 30.0849 43.4408 29.6991L46.1283 27.0116C46.313 26.8436 46.5437 26.7348 46.7908 26.6991C47.022 26.6656 47.2579 26.7049 47.4658 26.8116C47.6721 26.9165 47.8451 27.0766 47.9658 27.2741C48.0879 27.4951 48.1401 27.7479 48.1158 27.9991L47.7158 30.8241L50.5283 30.4366C50.7637 30.4135 51.0006 30.462 51.208 30.5758C51.4155 30.6895 51.5837 30.8632 51.6908 31.0741C51.7926 31.2535 51.8484 31.4554 51.8533 31.6616Z" fill="#C61BE2"/>
</svg>
