<svg width="79" height="78" viewBox="0 0 79 78" fill="none" xmlns="http://www.w3.org/2000/svg">
<rect x="0.5" width="78" height="78" rx="39" fill="#13813A" fill-opacity="0.15"/>
<path d="M39.5 47C43.642 47 47 43.642 47 39.5C47 35.358 43.642 32 39.5 32C35.358 32 32 35.358 32 39.5C32 43.642 35.358 47 39.5 47Z" stroke="#13813A" stroke-width="2" stroke-linecap="round" stroke-linejoin="round"/>
<path d="M37.5 32.5C38.4025 33.004 39.25 33.75 39.179 34.7225C39.122 35.5 38.4575 35.6735 38.3185 36.2355C38.1795 36.7975 38.9835 37.4105 37.6235 38.318C36.7155 38.923 33.985 40.0725 32 39" stroke="#13813A" stroke-width="2" stroke-linecap="round"/>
<path d="M32.2496 39.2497C30.7496 40.1937 28.5336 42.7602 29.4996 44.4997C30.7496 46.7497 35.4996 44.8447 40.9996 40.4997C46.4996 36.1547 48.6146 29.8027 48.6146 29.8027L45.9996 30.4997" stroke="#13813A" stroke-width="2" stroke-linecap="round" stroke-linejoin="round"/>
<path d="M40.5 47C40.5 47 40.75 44.5 42.5 43C44.25 41.5 46.5 41.5 46.5 41.5" stroke="#13813A" stroke-width="2" stroke-linecap="round"/>
</svg>
