<svg width="88" height="88" viewBox="0 0 88 88" fill="none" xmlns="http://www.w3.org/2000/svg">
<rect x="0.873047" y="0.75" width="86.7946" height="86.7946" rx="19.2877" fill="#ECEBFF"/>
<path d="M69.7833 56.9748L69.7944 56.9687H69.7726L56.9629 50.0276L44.1318 43.0742L31.3003 50.0276L18.4905 56.9687H18.4688L18.4799 56.9748L18.4688 56.9809H18.4905L31.3003 63.922L44.1318 70.8754L56.9629 63.922L69.7726 56.9809H69.7944L69.7833 56.9748Z" fill="#8FB7FF"/>
<path d="M69.7833 30.3166L69.7944 30.311H69.7726L56.9629 23.3694L44.1318 16.416L31.3003 23.3694L18.4905 30.311H18.4688L18.4799 30.3166L18.4688 30.3227H18.4905L31.3003 37.2643L44.1318 44.2177L56.9629 37.2643L69.7726 30.3227H69.7944L69.7833 30.3166Z" fill="#023796"/>
<path d="M18.4922 29.752V57.5414L44.1335 43.6469L18.4922 29.752Z" fill="#C2D8FF"/>
<path d="M69.7736 29.752V57.5414L44.1328 43.6469L69.7736 29.752Z" fill="#C2D8FF"/>
</svg>
